<svg id="Layer_2" data-name="Layer 2" xmlns="http://www.w3.org/2000/svg" viewBox="0 0 125.38 109.41">
  <defs>
    <style>
      .cls-1 {
        fill: #fff;
      }

      .cls-1, .cls-2, .cls-3, .cls-4 {
        stroke-width: 0px;
      }

      .cls-2 {
        fill: #e64d69;
      }

      .cls-3 {
        fill: #1463ae;
      }

      .cls-4 {
        fill: #fec133;
      }
    </style>
  </defs>
  <g>
    <rect class="cls-3" x="7.18" y="46.01" width="56.22" height="56.22" rx="10.78" ry="10.78" transform="translate(-42.07 46.66) rotate(-45)"/>
    <path class="cls-1" d="m1.01,68.98c8.48-4.65,15.58-4.92,19.03-4.78,5.06.2,9.35,1.56,12.49,2.53,4.89,1.52,7.44,2.99,11.71,4.92,4.15,1.88,10.12,4.31,17.8,6.51-.32,1.21-.63,2.42-.95,3.62-.59.01-1.18.02-1.77.01-14.6-.1-23.75-5.52-31.96-8.17-6-1.94-14.95-3.53-27.3-1.41.32-1.08.63-2.16.95-3.24Z"/>
    <path class="cls-1" d="m4.03,82.7c7.29-.47,12.78.68,16.04,2.02.49.2,2.91,1.28,7.74,3.42,3.91,1.74,5.1,2.28,6.99,3.05,1.86.76,4.41,1.79,7.55,2.77,2.64.82,5.71,1.99,10.18,2.68-.65.99-3.49,3.51-3.49,3.51,0,0-12.46-.05-21.58-3.56-3.34-1.29-9.99-3.37-14.91-5.45,0,0-7.14-6.4-8.51-8.44Z"/>
  </g>
  <g>
    <rect class="cls-2" x="34.89" y="7.51" width="54.67" height="54.67" rx="9.19" ry="9.19" transform="translate(-6.42 54.2) rotate(-45)"/>
    <path class="cls-1" d="m82.87,21.55h-11.45v7.65h-3.91v-7.65h-11.04v7.65h-3.91v-7.65h-11.29v8.95h2.95l-2.95,22.79,13.68,13.38c3.88,3.81,10.18,3.81,14.06,0l13.86-13.56-2.26-22.61h2.26v-8.95Zm-35.91,12.02h7.27v11.81h-7.27v-11.81Zm13.22,19.18h-7.36v-4.15h7.36v4.15Zm-1.36-7.37v-11.81h7.26v11.81h-7.26Zm13.37,7.37h-7.36v-4.15h7.36v4.15Zm5.86-7.37h-7.27v-11.81h7.27v11.81Z"/>
  </g>
  <g>
    <rect class="cls-4" x="62.99" y="46.73" width="54.79" height="54.79" rx="9.03" ry="9.03" transform="translate(-25.94 85.62) rotate(-45)"/>
    <path class="cls-1" d="m77.69,53.49l.02,7.25c0,4.68,2.34,5.37,11.17,11.63l-.02-7.33c0-4.42-2.48-5.58-4.99-7.32l-6.18-4.22Z"/>
    <path class="cls-1" d="m77.69,66.39l.02,7.25c0,4.68,2.34,5.37,11.17,11.63l-.02-7.33c0-4.42-2.48-5.58-4.99-7.32l-6.18-4.22Z"/>
    <path class="cls-1" d="m77.69,79.33l.02,7.25c0,4.68,2.34,5.37,11.17,11.63l-.02-7.33c0-4.42-2.48-5.58-4.99-7.32l-6.18-4.22Z"/>
    <path class="cls-1" d="m102.1,53.49l-.02,7.25c0,4.68-2.34,5.37-11.17,11.63l.02-7.33c0-4.42,2.48-5.58,4.99-7.32l6.18-4.22Z"/>
    <path class="cls-1" d="m102.1,66.39l-.02,7.25c0,4.68-2.34,5.37-11.17,11.63l.02-7.33c0-4.42,2.48-5.58,4.99-7.32l6.18-4.22Z"/>
    <path class="cls-1" d="m102.1,79.33l-.02,7.25c0,4.68-2.34,5.37-11.17,11.63l.02-7.33c0-4.42,2.48-5.58,4.99-7.32l6.18-4.22Z"/>
  </g>
</svg>