<?xml version="1.0" encoding="UTF-8"?> <svg xmlns="http://www.w3.org/2000/svg" viewBox="0 0 300 300" fill="none"> <path d="M5.8305 167.569C7.15368 181.512 18.281 192.632 32.2236 193.962C37.9386 194.504 43.8506 194.793 49.8964 194.793C55.9422 194.793 61.8472 194.511 67.5692 193.962C81.5118 192.639 92.6321 181.512 93.9623 167.569C94.5043 161.854 94.7929 155.942 94.7929 149.896C94.7929 143.851 94.5043 137.946 93.9623 132.224C92.6392 118.281 81.5118 107.161 67.5692 105.831C61.8543 105.289 55.9422 105 49.8964 105C43.8506 105 37.9456 105.289 32.2236 105.831C18.281 107.154 7.16072 118.281 5.8305 132.224C5.28856 137.939 5 143.851 5 149.896C5.00704 155.942 5.28856 161.854 5.8305 167.569Z" fill="#003399"></path> <path d="M61.1088 126.874C58.4555 126.874 55.1827 126.874 52.5293 126.874C50.1504 126.874 47.8701 125.924 46.2161 124.221C44.9774 122.94 43.1334 122.236 41.1486 122.574C38.819 122.968 36.9328 124.854 36.5386 127.184C36.2008 129.176 36.9046 131.012 38.1855 132.251C39.8958 133.905 40.8389 136.193 40.8389 138.564V140.964V143.562V147.137C40.8389 149.516 39.8888 151.796 38.1855 153.45C36.9046 154.689 36.2008 156.533 36.5386 158.518C36.9328 160.847 38.819 162.733 41.1486 163.128C43.1404 163.465 44.9774 162.762 46.2161 161.481C47.8701 159.77 50.1504 158.827 52.5293 158.827C53.7188 158.827 55.0279 158.827 56.351 158.827V156.23H52.5152C50.1856 156.23 47.9475 155.301 46.2935 153.654L46.012 153.373C44.365 151.726 43.436 149.488 43.436 147.151V143.554V140.957V138.543C43.436 136.214 44.365 133.976 46.012 132.322C47.8419 130.492 50.3264 129.464 52.9164 129.464H61.327C63.6707 129.464 65.8314 130.527 67.4854 132.181C67.4995 132.195 67.5136 132.209 67.5276 132.223C69.1746 133.835 70.2021 135.974 70.2021 138.276V147.151C70.2021 149.481 69.2731 151.719 67.6262 153.373C65.7962 155.203 63.3118 156.23 60.7217 156.23H58.9481V158.827C59.6942 158.827 60.4191 158.827 61.1088 158.827C63.4877 158.827 65.7681 159.777 67.4221 161.481C68.6608 162.762 70.5048 163.465 72.4895 163.128C74.8192 162.733 76.7054 160.847 77.0995 158.518C77.4374 156.526 76.7335 154.689 75.4526 153.45C73.7423 151.796 72.7992 149.509 72.7992 147.137V138.325C72.7992 136.101 73.6227 133.884 75.2837 132.406C76.6772 131.167 77.4514 129.253 77.1066 127.177C76.7124 124.847 74.8262 122.961 72.4966 122.567C70.5048 122.229 68.6678 122.933 67.4291 124.214C65.7681 125.924 63.4877 126.874 61.1088 126.874Z" fill="white"></path> <path d="M47.2573 140.963H43.4356V143.56H47.2714C49.601 143.56 51.8392 144.489 53.4931 146.136L53.7746 146.418C55.4216 148.065 56.3506 150.303 56.3506 152.639V156.236V158.833V161.247C56.3506 163.577 55.4216 165.815 53.7746 167.469C51.9447 169.299 49.4603 170.326 46.8702 170.326H39.0649C36.4749 170.326 33.9904 169.299 32.1605 167.469C30.5135 165.822 29.5845 163.584 29.5845 161.247V152.639C29.5845 150.31 30.5135 148.072 32.1605 146.418L32.442 146.136C34.0889 144.489 36.3271 143.56 38.6637 143.56H40.8385V140.963H38.6848C36.3059 140.963 34.0185 140.013 32.3716 138.31C31.1329 137.029 29.2889 136.325 27.3041 136.663C24.9745 137.057 23.0883 138.943 22.6941 141.273C22.3563 143.265 23.0601 145.102 24.3411 146.34C26.0513 147.994 26.9945 150.282 26.9945 152.654V161.226C26.9945 163.605 26.0443 165.892 24.3411 167.539C23.0601 168.778 22.3563 170.622 22.6941 172.607C23.0883 174.936 24.9745 176.823 27.3041 177.217C29.2959 177.555 31.1329 176.851 32.3716 175.57C34.0256 173.86 36.313 172.916 38.6848 172.916H47.2573C49.6362 172.916 51.9166 173.867 53.5705 175.57C54.8093 176.851 56.6533 177.555 58.638 177.217C60.9676 176.823 62.8539 174.936 63.248 172.607C63.5858 170.615 62.882 168.778 61.6011 167.539C59.8908 165.885 58.9477 163.598 58.9477 161.226V158.826V156.229V152.654C58.9477 150.275 59.8979 147.987 61.6011 146.34C62.882 145.102 63.5858 143.258 63.248 141.273C62.8539 138.943 60.9676 137.057 58.638 136.663C56.6462 136.325 54.8093 137.029 53.5705 138.31C51.9166 140.02 49.6292 140.963 47.2573 140.963Z" fill="#FF3366"></path> <path d="M136.677 148.354V140.555H135.037V121.616H130.709V140.555H121.503V121.616H117.181V144.553H132.644V148.354H136.677Z" fill="black"></path> <path d="M143.784 138.888V128.303H139.85V144.554H144.115L150.865 133.969V144.554H154.799V128.303H150.534L143.784 138.888Z" fill="black"></path> <path d="M183.734 142.653C185.043 141.076 185.698 139.007 185.698 136.424C185.698 133.869 185.05 131.8 183.762 130.216C182.474 128.633 180.834 127.837 178.849 127.837C176.534 127.837 174.817 128.675 173.705 130.357V121.616H169.573V130.364C168.785 128.682 167.194 127.845 164.787 127.845C162.781 127.845 161.071 128.64 159.677 130.237C158.277 131.835 157.58 133.897 157.58 136.431C157.58 139.007 158.249 141.083 159.579 142.66C160.909 144.229 162.662 145.018 164.822 145.018C166.877 145.018 168.461 144.208 169.573 142.589V151.239H173.705V142.688C174.795 144.236 176.421 145.018 178.589 145.018C180.707 145.011 182.418 144.229 183.734 142.653ZM168.757 139.985C168.039 140.935 167.053 141.414 165.808 141.414C164.562 141.414 163.57 140.935 162.824 139.985C162.085 139.035 161.711 137.853 161.711 136.431C161.711 135.009 162.085 133.827 162.824 132.877C163.57 131.927 164.562 131.448 165.808 131.448C167.053 131.448 168.039 131.927 168.757 132.877C169.475 133.827 169.841 135.016 169.841 136.431C169.834 137.846 169.475 139.035 168.757 139.985ZM174.521 139.985C173.796 139.035 173.437 137.853 173.437 136.431C173.437 135.009 173.796 133.827 174.521 132.877C175.239 131.927 176.224 131.448 177.47 131.448C178.716 131.448 179.708 131.927 180.454 132.877C181.193 133.827 181.566 135.016 181.566 136.431C181.566 137.853 181.193 139.035 180.454 139.985C179.715 140.935 178.716 141.414 177.47 141.414C176.231 141.407 175.246 140.935 174.521 139.985Z" fill="black"></path> <path d="M197.613 145.01C199.816 145.01 201.674 144.222 203.18 142.631C204.686 141.047 205.439 138.978 205.439 136.423C205.439 133.805 204.722 131.715 203.293 130.166C201.864 128.618 200.083 127.837 197.965 127.837C196.761 127.837 195.663 128.097 194.671 128.604C193.679 129.118 192.897 129.786 192.327 130.617V128.287H188.196L188.203 156.728C187.415 155.046 185.824 154.209 183.417 154.209C181.411 154.209 179.701 155.004 178.307 156.602C176.907 158.199 176.21 160.262 176.21 162.795C176.21 165.371 176.872 167.448 178.209 169.024C179.539 170.594 181.292 171.382 183.452 171.382C185.507 171.382 187.091 170.572 188.203 168.954V177.604H192.334V169.052C193.425 170.601 195.051 171.382 197.219 171.382C199.337 171.382 201.055 170.594 202.364 169.024C203.673 167.448 204.327 165.378 204.327 162.795C204.327 160.24 203.68 158.171 202.392 156.588C201.104 155.004 199.464 154.209 197.479 154.209C195.164 154.209 193.446 155.046 192.334 156.728L192.327 142.539C193.651 144.193 195.403 145.01 197.613 145.01ZM193.383 133.066C194.256 132.158 195.347 131.708 196.663 131.708C197.972 131.708 199.063 132.158 199.943 133.066C200.815 133.974 201.252 135.093 201.252 136.423C201.252 137.754 200.815 138.88 199.943 139.781C199.07 140.688 197.979 141.139 196.663 141.139C195.354 141.139 194.263 140.688 193.383 139.781C192.51 138.873 192.074 137.754 192.074 136.423C192.074 135.093 192.51 133.974 193.383 133.066ZM187.394 166.364C186.676 167.314 185.69 167.792 184.445 167.792C183.199 167.792 182.206 167.314 181.46 166.364C180.714 165.414 180.348 164.231 180.348 162.809C180.348 161.388 180.721 160.205 181.46 159.255C182.199 158.305 183.199 157.826 184.445 157.826C185.69 157.826 186.676 158.298 187.394 159.255C188.112 160.205 188.477 161.388 188.477 162.809C188.477 164.231 188.112 165.414 187.394 166.364ZM193.158 159.248C193.876 158.298 194.861 157.819 196.107 157.819C197.353 157.819 198.345 158.291 199.091 159.248C199.83 160.198 200.203 161.381 200.203 162.802C200.203 164.224 199.83 165.406 199.091 166.357C198.352 167.307 197.353 167.785 196.107 167.785C194.861 167.785 193.876 167.307 193.158 166.357C192.44 165.406 192.074 164.224 192.074 162.802C192.074 161.381 192.44 160.198 193.158 159.248Z" fill="black"></path> <path d="M222.711 130.117C220.951 128.597 218.868 127.837 216.468 127.837C214.068 127.837 211.985 128.597 210.225 130.117C208.466 131.637 207.586 133.735 207.586 136.423C207.586 139.112 208.466 141.216 210.225 142.73C211.985 144.25 214.061 145.01 216.468 145.01C218.875 145.01 220.951 144.25 222.711 142.73C224.47 141.209 225.35 139.112 225.35 136.423C225.35 133.735 224.47 131.637 222.711 130.117ZM219.776 139.865C218.861 140.717 217.756 141.146 216.468 141.146C215.18 141.146 214.075 140.717 213.16 139.865C212.245 139.013 211.788 137.866 211.788 136.423C211.788 134.981 212.245 133.833 213.16 132.982C214.075 132.13 215.18 131.708 216.468 131.708C217.756 131.708 218.861 132.13 219.776 132.982C220.691 133.833 221.156 134.981 221.156 136.423C221.156 137.866 220.698 139.013 219.776 139.865Z" fill="black"></path> <path d="M238.884 135.967C240.482 135.115 241.277 133.905 241.277 132.328C241.277 131.174 240.792 130.21 239.82 129.442C238.849 128.675 237.477 128.295 235.71 128.295H228.144V144.546H236.076C237.779 144.546 239.173 144.11 240.257 143.237C241.341 142.364 241.883 141.217 241.883 139.796C241.861 138.057 240.869 136.776 238.884 135.967ZM232.128 131.448H235.337C236.076 131.448 236.618 131.561 236.956 131.793C237.294 132.025 237.463 132.42 237.463 132.99C237.463 133.56 237.294 133.954 236.956 134.186C236.618 134.418 236.076 134.531 235.337 134.531H232.128V131.448ZM235.506 141.407H232.128V137.67H235.506C237.075 137.67 237.864 138.282 237.864 139.507C237.864 140.774 237.075 141.407 235.506 141.407Z" fill="black"></path> <path d="M256.727 143.23C257.79 142.343 258.317 141.105 258.317 139.507C258.317 137.909 257.79 136.685 256.727 135.819C255.664 134.96 254.263 134.524 252.518 134.524H248.584V128.295H244.586V144.546H252.518C254.263 144.553 255.664 144.11 256.727 143.23ZM248.584 141.407V137.67H251.962C253.531 137.67 254.32 138.282 254.32 139.507C254.32 140.774 253.531 141.407 251.962 141.407H248.584Z" fill="black"></path> <path d="M264.743 128.303H260.612V144.554H264.743V128.303Z" fill="black"></path> <path d="M283.514 140.26L280.431 138.493C279.446 140.485 277.954 141.477 275.941 141.477C274.716 141.477 273.703 141.111 272.894 140.38C272.084 139.648 271.613 138.655 271.486 137.416H284.007V135.974C284.007 133.616 283.268 131.673 281.776 130.139C280.291 128.612 278.39 127.845 276.075 127.845C273.675 127.845 271.648 128.647 269.994 130.252C268.34 131.856 267.516 133.918 267.516 136.431C267.516 138.944 268.333 141.006 269.959 142.611C271.584 144.215 273.555 145.018 275.878 145.018C279.439 145.011 281.987 143.427 283.514 140.26ZM273.161 131.941C273.949 131.307 274.878 130.991 275.948 130.991C277.102 130.991 278.06 131.293 278.799 131.891C279.538 132.49 280.009 133.327 280.206 134.397H271.493C271.817 133.391 272.373 132.574 273.161 131.941Z" fill="black"></path> <path d="M116.85 170.931H120.848V158.417H127.274V170.931H131.271V154.68H116.85V170.931Z" fill="black"></path> <path d="M145.918 154.216C144.715 154.216 143.617 154.477 142.624 154.984C141.632 155.497 140.851 156.166 140.281 156.997V154.667H136.149V177.604H140.281V168.933C141.59 170.573 143.349 171.39 145.559 171.39C147.762 171.39 149.62 170.601 151.126 169.011C152.633 167.427 153.386 165.358 153.386 162.803C153.386 160.185 152.668 158.095 151.239 156.546C149.81 154.998 148.037 154.216 145.918 154.216ZM147.882 166.167C147.009 167.075 145.918 167.526 144.602 167.526C143.286 167.526 142.202 167.075 141.322 166.167C140.449 165.259 140.013 164.14 140.013 162.81C140.013 161.48 140.449 160.361 141.322 159.453C142.195 158.545 143.286 158.095 144.602 158.095C145.918 158.095 147.002 158.545 147.882 159.453C148.755 160.361 149.191 161.48 149.191 162.81C149.191 164.14 148.755 165.259 147.882 166.167Z" fill="black"></path> <path d="M171.037 156.497C169.278 154.977 167.194 154.216 164.794 154.216C162.394 154.216 160.311 154.977 158.551 156.497C156.792 158.017 155.912 160.114 155.912 162.803C155.912 165.492 156.792 167.596 158.551 169.109C160.311 170.629 162.394 171.39 164.794 171.39C167.194 171.39 169.278 170.629 171.037 169.109C172.797 167.589 173.676 165.492 173.676 162.803C173.669 160.122 172.79 158.017 171.037 156.497ZM168.102 166.245C167.187 167.096 166.082 167.526 164.794 167.526C163.506 167.526 162.401 167.096 161.486 166.245C160.571 165.393 160.114 164.246 160.114 162.803C160.114 161.36 160.571 160.213 161.486 159.361C162.401 158.51 163.506 158.087 164.794 158.087C166.082 158.087 167.187 158.51 168.102 159.361C169.017 160.213 169.482 161.36 169.482 162.803C169.482 164.246 169.017 165.393 168.102 166.245Z" fill="black"></path> <path d="M214.729 154.224C212.329 154.224 210.302 155.027 208.648 156.631C206.994 158.236 206.178 160.298 206.178 162.811C206.178 165.323 206.994 167.379 208.62 168.99C210.246 170.595 212.216 171.397 214.532 171.397C218.093 171.397 220.641 169.814 222.168 166.647L219.086 164.88C218.1 166.865 216.608 167.864 214.595 167.864C213.371 167.864 212.357 167.498 211.548 166.766C210.738 166.034 210.267 165.049 210.14 163.803H222.661V162.36C222.661 160.003 221.915 158.053 220.43 156.526C218.945 154.984 217.045 154.224 214.729 154.224ZM210.14 160.777C210.464 159.77 211.027 158.954 211.808 158.32C212.597 157.687 213.526 157.37 214.595 157.37C215.75 157.37 216.7 157.673 217.446 158.271C218.185 158.869 218.656 159.707 218.853 160.777H210.14Z" fill="black"></path> <path d="M235.689 166.787C235.02 167.279 234.169 167.526 233.113 167.526C231.846 167.526 230.811 167.096 230.002 166.245C229.193 165.393 228.791 164.246 228.791 162.803C228.791 161.381 229.2 160.241 230.023 159.375C230.84 158.517 231.874 158.08 233.12 158.08C234.999 158.08 236.365 159.009 237.216 160.868L240.594 158.636C240.024 157.236 239.095 156.152 237.807 155.378C236.519 154.604 234.964 154.216 233.155 154.216C230.776 154.216 228.756 155.012 227.095 156.609C225.434 158.207 224.604 160.269 224.604 162.803C224.604 165.358 225.42 167.427 227.046 169.011C228.672 170.594 230.713 171.39 233.155 171.39C236.674 171.39 239.208 169.827 240.756 166.702L237.413 164.541C236.928 165.548 236.35 166.294 235.689 166.787Z" fill="black"></path> <path d="M253.284 166.787C252.616 167.279 251.764 167.526 250.715 167.526C249.449 167.526 248.407 167.096 247.605 166.245C246.795 165.393 246.394 164.246 246.394 162.803C246.394 161.381 246.802 160.241 247.626 159.375C248.449 158.517 249.477 158.08 250.722 158.08C252.602 158.08 253.967 159.009 254.819 160.868L258.197 158.636C257.627 157.236 256.698 156.152 255.41 155.378C254.122 154.604 252.574 154.216 250.758 154.216C248.379 154.216 246.359 155.012 244.698 156.609C243.037 158.207 242.206 160.269 242.206 162.803C242.206 165.358 243.023 167.427 244.649 169.011C246.274 170.594 248.315 171.39 250.758 171.39C254.277 171.39 256.81 169.827 258.359 166.702L255.016 164.541C254.523 165.548 253.953 166.294 253.284 166.787Z" fill="black"></path> <path d="M264.511 165.265V154.68H260.577V170.931H264.835L271.584 160.345V170.931H275.519V154.68H271.261L264.511 165.265Z" fill="black"></path> <path d="M289.742 154.68L282.992 165.265V154.68H279.058V170.931H283.316L290.066 160.345V170.931H294V154.68H289.742Z" fill="black"></path> </svg> 