<?xml version="1.0" encoding="UTF-8"?>
<svg id="Layer_2" data-name="Layer 2" xmlns="http://www.w3.org/2000/svg" viewBox="0 0 304.09 304.04">
  <defs>
    <style>
      .cls-1 {
        fill: #372e5a;
        stroke-width: 0px;
      }

      .cls-2 {
        fill: none;
        stroke: #372e5a;
        stroke-miterlimit: 10;
        stroke-width: 10px;
      }
    </style>
  </defs>
  <path class="cls-2" d="m297.24,139.43l-25.04-5.24c-.47-.1-.81-.47-.9-.94-1.44-8.48-3.75-16.66-6.86-24.43-.18-.45-.06-.97.3-1.29l19.35-17.21c.8-.74.98-1.93.44-2.87l-10.32-17.88c-.54-.94-1.65-1.37-2.7-1.06l-24.99,8.38c-.45.16-.94,0-1.25-.36-5.34-6.43-11.31-12.29-17.83-17.5-.37-.3-.53-.81-.37-1.27l8.49-25.2c.32-1.03-.12-2.16-1.06-2.7l-17.88-10.32c-.94-.53-2.12-.36-2.87.44l-17.69,20.15c-.32.36-.83.49-1.28.32-7.32-2.68-20.74-5.6-24.02-6.3-.45-.09-.8-.45-.89-.9l-5.29-26.37c-.21-1.09-1.16-1.87-2.28-1.87h-20.54c-1.1,0-2.06.79-2.28,1.87l-5.29,26.37c-.09.45-.44.81-.89.9-3.28.7-16.7,3.62-24.03,6.31-.45.17-.96.04-1.28-.32l-17.67-20.1c-.74-.84-1.95-1.03-2.9-.49l-17.8,10.28c-.97.56-1.4,1.71-1.05,2.77l8.49,25.12c.16.47,0,.97-.37,1.27-6.58,5.25-12.6,11.16-17.96,17.65-.31.37-.8.52-1.25.36l-24.87-8.42c-1.05-.35-2.21.08-2.75,1.05l-10.28,17.8c-.56.96-.36,2.17.48,2.9l19.37,17.03c.36.32.49.84.31,1.29-3.19,7.91-5.55,16.24-6.99,24.89-.08.48-.44.85-.9.94l-24.95,5c-1.09.22-1.87,1.18-1.87,2.28v20.54c0,1.1.79,2.06,1.87,2.28l24.43,4.89c.48.09.84.49.92.97,1.23,8.97,3.46,17.61,6.57,25.84.17.45.05.96-.31,1.27l-18.41,16.17c-.84.74-1.03,1.95-.48,2.91l10.28,17.79c.54.97,1.71,1.4,2.75,1.05l22.82-7.72c.47-.16.97,0,1.28.39,5.62,7.2,12.06,13.74,19.15,19.5.37.31.53.8.37,1.27l-7.64,22.57c-.35,1.05.08,2.2,1.05,2.75l17.8,10.28c.96.54,2.17.35,2.9-.48l15.54-17.69c.32-.36.84-.49,1.29-.31,7.96,3.09,22.75,6.4,26.17,7.14.44.09.78.44.88.88l5.24,23.21c.25,1.06,1.19,1.81,2.26,1.81h20.65c1.09,0,2.03-.75,2.26-1.81l5.24-23.21c.1-.44.44-.79.88-.88,3.37-.72,17.81-3.93,25.58-6.89.45-.17.94-.05,1.27.3l16.15,17.52c.74.8,1.93.98,2.87.44l17.88-10.32c.94-.54,1.38-1.67,1.06-2.7l-7.24-22.99c-.14-.45,0-.94.37-1.24,6.77-5.55,12.94-11.83,18.38-18.71.3-.37.79-.53,1.25-.39l23.19,7.37c1.05.32,2.16-.12,2.7-1.06l10.32-17.88c.54-.94.36-2.12-.44-2.87l-18.33-16.63c-.35-.32-.47-.81-.3-1.25,2.97-7.98,5.13-16.37,6.36-25.04.06-.48.43-.87.9-.97l24.54-5.24c1.06-.23,1.81-1.18,1.81-2.26v-20.65c0-1.09-.75-2.02-1.81-2.26h-.04Zm-53.79,30.15c-.77,4.47-1.87,8.83-3.27,13.05-3.73,11.35-9.6,21.73-17.12,30.69-2.97,3.52-6.19,6.83-9.65,9.88-8.76,7.74-19.02,13.85-30.27,17.84-4.37,1.57-8.89,2.8-13.54,3.69-5.68,1.1-11.56,1.67-17.57,1.67s-11.87-.57-17.57-1.67c-4.65-.88-9.17-2.12-13.54-3.69-11.25-3.99-21.49-10.1-30.27-17.84-3.46-3.06-6.68-6.36-9.65-9.89-7.53-8.94-13.39-19.32-17.11-30.67-1.39-4.22-2.5-8.57-3.27-13.05-.91-5.18-1.38-10.52-1.38-15.96,0-6.57.68-12.98,1.98-19.17.9-4.28,2.1-8.46,3.57-12.5,4.05-11.21,10.24-21.43,18.03-30.16,2.82-3.14,5.83-6.09,9.04-8.83,8.9-7.58,19.25-13.51,30.57-17.31,3.89-1.31,7.91-2.37,12.01-3.16,5.7-1.1,11.56-1.67,17.57-1.67s11.88.57,17.57,1.67c4.12.78,8.12,1.83,12.02,3.16,11.32,3.8,21.67,9.72,30.56,17.31,3.21,2.73,6.23,5.68,9.04,8.83,7.8,8.73,13.98,18.94,18.05,30.16,1.48,4.05,2.68,8.22,3.57,12.5,1.3,6.18,1.98,12.6,1.98,19.17,0,5.44-.47,10.78-1.38,15.96h0Z"/>
  <g>
    <path class="cls-1" d="m116.32,130.83v42.37c0,.33-.26.59-.59.59h-9.94c-.33,0-.59-.26-.59-.59v-16.23c0-.33-.26-.59-.59-.59h-15.5c-.33,0-.59.26-.59.59v16.23c0,.33-.26.59-.59.59h-9.94c-.33,0-.59-.26-.59-.59v-42.37c0-.33.26-.59.59-.59h9.94c.33,0,.59.26.59.59v16.21c0,.33.26.59.59.59h15.5c.33,0,.59-.26.59-.59v-16.21c0-.33.26-.59.59-.59h9.94c.33,0,.59.26.59.59Z"/>
    <path class="cls-1" d="m177.29,130.83v42.37c0,.33-.26.59-.59.59h-9.94c-.33,0-.59-.26-.59-.59v-21.97c0-.65-.91-.82-1.13-.2l-8.15,22.38c-.08.23-.3.39-.55.39h-8.52c-.25,0-.47-.17-.55-.39l-8.16-22.4c-.22-.61-1.13-.46-1.13.2v22.01c0,.33-.26.59-.59.59h-9.94c-.33,0-.59-.26-.59-.59v-42.37c0-.33.26-.59.59-.59h13.03c.25,0,.47.16.55.39l10.49,28.82c.18.51.91.51,1.09,0l10.49-28.82c.08-.23.3-.39.55-.39h13.03c.33,0,.59.26.59.59h.01Z"/>
    <path class="cls-1" d="m209.38,152.4l17.15,20.44c.33.38.05.96-.44.96h-9.93c-.17,0-.34-.08-.44-.21l-12.37-14.74-3.57-4.08c-.35-.42-1.03-.55-1.03,0v18.44c0,.33-.26.59-.59.59h-9.94c-.33,0-.59-.26-.59-.59v-42.37c0-.33.26-.59.59-.59h9.94c.33,0,.59.26.59.59v18.25c0,.55.68.79,1.03.38l3.57-4.26,12.37-14.74c.12-.13.27-.21.44-.21h9.93c.5,0,.77.59.44.96l-17.15,20.44c-.18.22-.18.53,0,.76h0Z"/>
  </g>
</svg>